<svg id="Layer_1" data-name="Layer 1" xmlns="http://www.w3.org/2000/svg" viewBox="0 0 876.02 659.62"><defs><style>.cls-1{opacity:0.2;}.cls-2{fill:#fcee21;}</style></defs><title>logo</title><g class="cls-1"><path class="cls-2" d="M435.75,670.62c-1.21,0-3.64,0-4.86-1.21a19.8,19.8,0,0,1-13.36-15.79l-27.93-313.3-40.07,21.86c-6.07,3.64-13.36,2.43-19.43-1.21L49.59,164.24a20.14,20.14,0,0,1-7.29-19.43,15.8,15.8,0,0,1,15.79-13.36L897.21,11.23a18.07,18.07,0,0,1,18.22,8.5,18.39,18.39,0,0,1-1.21,20.64l-463.88,623C447.9,668.2,441.82,670.62,435.75,670.62Zm-12.14-355.8,25.5,289L832.84,87.74ZM109.09,160.6,336.18,320.89,804.91,61Z" transform="translate(-42 -11)"/></g></svg>